<?xml version="1.0" standalone="no"?>
<!DOCTYPE svg PUBLIC "-//W3C//DTD SVG 20010904//EN"
 "http://www.w3.org/TR/2001/REC-SVG-20010904/DTD/svg10.dtd">
<svg version="1.0" xmlns="http://www.w3.org/2000/svg"
 width="512.000000pt" height="512.000000pt" viewBox="0 0 512.000000 512.000000"
 preserveAspectRatio="xMidYMid meet">
<metadata>
Created by potrace 1.11, written by Peter Selinger 2001-2013
</metadata>
<g transform="translate(0.000000,512.000000) scale(0.100000,-0.100000)"
fill="#000000" stroke="none">
<path d="M2416 5104 c-247 -78 -332 -378 -162 -573 28 -32 135 -101 157 -101
15 0 17 -13 16 -140 l0 -139 -377 -3 -376 -3 -42 -28 c-24 -15 -51 -46 -64
-70 -20 -39 -22 -56 -22 -234 l-1 -193 -176 0 -175 0 -222 -222 -222 -222 221
-220 221 -220 612 -2 c336 -1 614 -2 617 -3 4 0 7 -455 7 -1011 l0 -1010 -32
-1 c-17 -1 -96 -2 -176 -3 l-145 -1 0 -176 0 -176 -115 -1 c-63 0 -123 -1
-132 -1 -16 -1 -18 -16 -18 -176 l0 -175 705 0 705 0 1 23 c0 12 1 91 2 174 2
147 1 153 -18 154 -11 0 -72 1 -135 1 l-115 1 0 176 0 176 -165 1 c-91 1 -170
2 -175 3 -7 1 -10 345 -10 1014 l0 1012 405 1 c442 0 455 2 508 57 51 52 58
91 58 293 l-1 181 175 -2 175 -1 223 221 222 221 -222 222 -222 222 -660 0
-661 0 0 140 c0 79 4 140 9 140 25 0 115 53 147 87 45 47 83 108 93 148 39
158 -12 299 -142 393 -77 55 -205 75 -296 46z"/>
</g>
</svg>
